<svg width="345" height="200" viewBox="0 0 345 200" fill="none" xmlns="http://www.w3.org/2000/svg">
<rect width="345" height="200" fill="#8257E5"/>
<path d="M121.471 126.182C121.394 125.534 121.083 125.031 120.538 124.673C119.992 124.315 119.323 124.136 118.531 124.136C117.951 124.136 117.444 124.23 117.009 124.418C116.579 124.605 116.242 124.863 115.999 125.191C115.761 125.519 115.641 125.892 115.641 126.31C115.641 126.659 115.724 126.96 115.891 127.211C116.061 127.458 116.278 127.665 116.543 127.831C116.807 127.993 117.084 128.127 117.374 128.234C117.663 128.336 117.93 128.419 118.173 128.483L119.502 128.841C119.843 128.93 120.222 129.054 120.64 129.212C121.062 129.369 121.464 129.585 121.848 129.857C122.236 130.126 122.555 130.471 122.807 130.893C123.058 131.315 123.184 131.832 123.184 132.446C123.184 133.153 122.999 133.793 122.628 134.364C122.261 134.935 121.724 135.388 121.017 135.725C120.314 136.062 119.46 136.23 118.454 136.23C117.516 136.23 116.705 136.079 116.018 135.776C115.337 135.474 114.8 135.052 114.408 134.511C114.02 133.969 113.8 133.341 113.749 132.625H115.386C115.428 133.119 115.594 133.528 115.884 133.852C116.178 134.172 116.549 134.411 116.996 134.568C117.448 134.722 117.934 134.798 118.454 134.798C119.059 134.798 119.602 134.7 120.084 134.504C120.565 134.304 120.947 134.027 121.228 133.673C121.509 133.315 121.65 132.898 121.65 132.42C121.65 131.986 121.528 131.632 121.286 131.359C121.043 131.087 120.723 130.865 120.327 130.695C119.93 130.524 119.502 130.375 119.042 130.247L117.431 129.787C116.408 129.493 115.599 129.073 115.002 128.528C114.406 127.982 114.107 127.268 114.107 126.386C114.107 125.653 114.305 125.014 114.702 124.469C115.102 123.919 115.639 123.493 116.312 123.19C116.99 122.884 117.746 122.73 118.582 122.73C119.425 122.73 120.175 122.881 120.832 123.184C121.488 123.482 122.008 123.891 122.391 124.411C122.779 124.931 122.984 125.521 123.005 126.182H121.471ZM129.702 136.205C128.756 136.205 127.94 135.996 127.254 135.578C126.572 135.156 126.046 134.568 125.675 133.814C125.309 133.055 125.126 132.173 125.126 131.168C125.126 130.162 125.309 129.276 125.675 128.509C126.046 127.737 126.562 127.136 127.222 126.706C127.887 126.271 128.662 126.054 129.549 126.054C130.06 126.054 130.565 126.139 131.064 126.31C131.562 126.48 132.016 126.757 132.425 127.141C132.834 127.52 133.16 128.023 133.403 128.649C133.646 129.276 133.768 130.047 133.768 130.963V131.602H126.199V130.298H132.233C132.233 129.744 132.123 129.25 131.901 128.815C131.684 128.381 131.373 128.038 130.968 127.786C130.567 127.535 130.094 127.409 129.549 127.409C128.948 127.409 128.428 127.558 127.989 127.857C127.555 128.151 127.22 128.534 126.986 129.007C126.751 129.48 126.634 129.987 126.634 130.528V131.398C126.634 132.139 126.762 132.768 127.018 133.283C127.278 133.795 127.638 134.185 128.098 134.453C128.558 134.717 129.093 134.849 129.702 134.849C130.099 134.849 130.456 134.794 130.776 134.683C131.1 134.568 131.379 134.398 131.613 134.172C131.848 133.942 132.029 133.656 132.157 133.315L133.614 133.724C133.461 134.219 133.203 134.653 132.841 135.028C132.479 135.399 132.031 135.689 131.498 135.898C130.966 136.102 130.367 136.205 129.702 136.205ZM142.25 131.986V126.182H143.758V136H142.25V134.338H142.148C141.917 134.837 141.559 135.261 141.074 135.61C140.588 135.955 139.974 136.128 139.233 136.128C138.619 136.128 138.074 135.994 137.596 135.725C137.119 135.452 136.744 135.043 136.471 134.498C136.199 133.948 136.062 133.256 136.062 132.42V126.182H137.571V132.318C137.571 133.034 137.771 133.605 138.172 134.031C138.577 134.457 139.092 134.67 139.719 134.67C140.094 134.67 140.475 134.575 140.863 134.383C141.255 134.191 141.583 133.897 141.847 133.501C142.116 133.104 142.25 132.599 142.25 131.986ZM154.473 136.23C153.851 136.23 153.286 136.113 152.779 135.879C152.272 135.64 151.869 135.297 151.571 134.849C151.273 134.398 151.124 133.852 151.124 133.213C151.124 132.651 151.234 132.195 151.456 131.845C151.678 131.491 151.974 131.214 152.344 131.014C152.715 130.814 153.124 130.665 153.572 130.567C154.023 130.464 154.477 130.384 154.933 130.324C155.53 130.247 156.013 130.19 156.384 130.151C156.759 130.109 157.032 130.038 157.202 129.94C157.377 129.842 157.464 129.672 157.464 129.429V129.378C157.464 128.747 157.292 128.257 156.947 127.908C156.606 127.558 156.088 127.384 155.393 127.384C154.673 127.384 154.109 127.541 153.7 127.857C153.29 128.172 153.003 128.509 152.837 128.866L151.405 128.355C151.661 127.759 152.001 127.294 152.428 126.962C152.858 126.625 153.327 126.391 153.834 126.259C154.345 126.122 154.848 126.054 155.342 126.054C155.658 126.054 156.02 126.092 156.429 126.169C156.842 126.241 157.241 126.393 157.624 126.623C158.012 126.853 158.334 127.2 158.589 127.665C158.845 128.129 158.973 128.751 158.973 129.531V136H157.464V134.67H157.388C157.286 134.884 157.115 135.112 156.876 135.354C156.638 135.597 156.32 135.804 155.924 135.974C155.528 136.145 155.044 136.23 154.473 136.23ZM154.703 134.875C155.3 134.875 155.803 134.758 156.212 134.523C156.625 134.289 156.936 133.987 157.145 133.616C157.358 133.245 157.464 132.855 157.464 132.446V131.065C157.401 131.142 157.26 131.212 157.043 131.276C156.83 131.336 156.582 131.389 156.301 131.436C156.024 131.479 155.754 131.517 155.489 131.551C155.229 131.581 155.018 131.607 154.857 131.628C154.464 131.679 154.098 131.762 153.757 131.877C153.42 131.988 153.148 132.156 152.939 132.382C152.734 132.604 152.632 132.906 152.632 133.29C152.632 133.814 152.826 134.21 153.214 134.479C153.606 134.743 154.102 134.875 154.703 134.875ZM161.726 139.682V126.182H163.184V127.741H163.363C163.474 127.571 163.627 127.354 163.823 127.089C164.023 126.821 164.309 126.582 164.68 126.374C165.055 126.161 165.562 126.054 166.201 126.054C167.028 126.054 167.756 126.261 168.387 126.674C169.018 127.087 169.51 127.673 169.863 128.432C170.217 129.19 170.394 130.085 170.394 131.116C170.394 132.156 170.217 133.058 169.863 133.82C169.51 134.579 169.02 135.167 168.393 135.585C167.767 135.998 167.045 136.205 166.226 136.205C165.596 136.205 165.091 136.1 164.711 135.891C164.332 135.678 164.04 135.437 163.836 135.169C163.631 134.896 163.474 134.67 163.363 134.491H163.235V139.682H161.726ZM163.209 131.091C163.209 131.832 163.318 132.487 163.535 133.053C163.753 133.616 164.07 134.057 164.488 134.376C164.905 134.692 165.417 134.849 166.022 134.849C166.653 134.849 167.179 134.683 167.601 134.351C168.027 134.014 168.346 133.562 168.559 132.996C168.777 132.425 168.885 131.79 168.885 131.091C168.885 130.401 168.779 129.778 168.566 129.224C168.357 128.666 168.04 128.225 167.613 127.901C167.192 127.573 166.661 127.409 166.022 127.409C165.408 127.409 164.893 127.565 164.475 127.876C164.057 128.183 163.742 128.613 163.529 129.167C163.316 129.717 163.209 130.358 163.209 131.091ZM174.204 122.909V136H172.695V122.909H174.204ZM176.967 136V126.182H178.475V136H176.967ZM177.734 124.545C177.44 124.545 177.186 124.445 176.973 124.245C176.764 124.045 176.66 123.804 176.66 123.523C176.66 123.241 176.764 123.001 176.973 122.8C177.186 122.6 177.44 122.5 177.734 122.5C178.028 122.5 178.279 122.6 178.488 122.8C178.701 123.001 178.808 123.241 178.808 123.523C178.808 123.804 178.701 124.045 178.488 124.245C178.279 124.445 178.028 124.545 177.734 124.545ZM185.227 136.205C184.306 136.205 183.514 135.987 182.849 135.553C182.184 135.118 181.673 134.519 181.315 133.756C180.957 132.994 180.778 132.122 180.778 131.142C180.778 130.145 180.961 129.265 181.328 128.502C181.698 127.735 182.214 127.136 182.874 126.706C183.539 126.271 184.315 126.054 185.201 126.054C185.892 126.054 186.514 126.182 187.068 126.438C187.622 126.693 188.075 127.051 188.429 127.511C188.783 127.972 189.002 128.509 189.088 129.122H187.579C187.464 128.675 187.208 128.278 186.812 127.933C186.42 127.584 185.892 127.409 185.227 127.409C184.639 127.409 184.123 127.562 183.68 127.869C183.241 128.172 182.898 128.6 182.651 129.154C182.408 129.704 182.286 130.349 182.286 131.091C182.286 131.849 182.406 132.51 182.644 133.072C182.887 133.635 183.228 134.072 183.667 134.383C184.11 134.694 184.63 134.849 185.227 134.849C185.619 134.849 185.975 134.781 186.294 134.645C186.614 134.509 186.884 134.312 187.106 134.057C187.328 133.801 187.485 133.494 187.579 133.136H189.088C189.002 133.716 188.791 134.238 188.455 134.702C188.122 135.163 187.681 135.529 187.132 135.802C186.586 136.07 185.951 136.205 185.227 136.205ZM194.182 136.23C193.56 136.23 192.995 136.113 192.488 135.879C191.981 135.64 191.578 135.297 191.28 134.849C190.982 134.398 190.833 133.852 190.833 133.213C190.833 132.651 190.943 132.195 191.165 131.845C191.387 131.491 191.683 131.214 192.053 131.014C192.424 130.814 192.833 130.665 193.281 130.567C193.732 130.464 194.186 130.384 194.642 130.324C195.239 130.247 195.722 130.19 196.093 130.151C196.468 130.109 196.741 130.038 196.911 129.94C197.086 129.842 197.173 129.672 197.173 129.429V129.378C197.173 128.747 197.001 128.257 196.656 127.908C196.315 127.558 195.797 127.384 195.102 127.384C194.382 127.384 193.818 127.541 193.409 127.857C192.999 128.172 192.712 128.509 192.546 128.866L191.114 128.355C191.369 127.759 191.71 127.294 192.137 126.962C192.567 126.625 193.036 126.391 193.543 126.259C194.054 126.122 194.557 126.054 195.051 126.054C195.367 126.054 195.729 126.092 196.138 126.169C196.551 126.241 196.95 126.393 197.333 126.623C197.721 126.853 198.043 127.2 198.298 127.665C198.554 128.129 198.682 128.751 198.682 129.531V136H197.173V134.67H197.097C196.994 134.884 196.824 135.112 196.585 135.354C196.347 135.597 196.029 135.804 195.633 135.974C195.237 136.145 194.753 136.23 194.182 136.23ZM194.412 134.875C195.009 134.875 195.512 134.758 195.921 134.523C196.334 134.289 196.645 133.987 196.854 133.616C197.067 133.245 197.173 132.855 197.173 132.446V131.065C197.11 131.142 196.969 131.212 196.752 131.276C196.539 131.336 196.291 131.389 196.01 131.436C195.733 131.479 195.463 131.517 195.198 131.551C194.938 131.581 194.727 131.607 194.566 131.628C194.173 131.679 193.807 131.762 193.466 131.877C193.129 131.988 192.857 132.156 192.648 132.382C192.443 132.604 192.341 132.906 192.341 133.29C192.341 133.814 192.535 134.21 192.923 134.479C193.315 134.743 193.811 134.875 194.412 134.875ZM205.705 126.182V127.46H200.617V126.182H205.705ZM202.1 123.83H203.609V133.188C203.609 133.614 203.67 133.933 203.794 134.146C203.922 134.355 204.084 134.496 204.28 134.568C204.48 134.636 204.691 134.67 204.913 134.67C205.079 134.67 205.215 134.662 205.322 134.645C205.428 134.624 205.513 134.607 205.577 134.594L205.884 135.949C205.782 135.987 205.639 136.026 205.456 136.064C205.273 136.107 205.04 136.128 204.759 136.128C204.333 136.128 203.915 136.036 203.506 135.853C203.102 135.67 202.765 135.391 202.496 135.016C202.232 134.641 202.1 134.168 202.1 133.597V123.83ZM207.974 136V126.182H209.483V136H207.974ZM208.741 124.545C208.447 124.545 208.194 124.445 207.981 124.245C207.772 124.045 207.668 123.804 207.668 123.523C207.668 123.241 207.772 123.001 207.981 122.8C208.194 122.6 208.447 122.5 208.741 122.5C209.036 122.5 209.287 122.6 209.496 122.8C209.709 123.001 209.815 123.241 209.815 123.523C209.815 123.804 209.709 124.045 209.496 124.245C209.287 124.445 209.036 124.545 208.741 124.545ZM220.274 126.182L216.644 136H215.11L211.479 126.182H213.115L215.825 134.006H215.928L218.638 126.182H220.274ZM225.903 136.205C225.016 136.205 224.238 135.994 223.569 135.572C222.905 135.15 222.385 134.56 222.01 133.801C221.639 133.043 221.454 132.156 221.454 131.142C221.454 130.119 221.639 129.227 222.01 128.464C222.385 127.701 222.905 127.109 223.569 126.687C224.238 126.265 225.016 126.054 225.903 126.054C226.789 126.054 227.564 126.265 228.229 126.687C228.898 127.109 229.418 127.701 229.789 128.464C230.164 129.227 230.351 130.119 230.351 131.142C230.351 132.156 230.164 133.043 229.789 133.801C229.418 134.56 228.898 135.15 228.229 135.572C227.564 135.994 226.789 136.205 225.903 136.205ZM225.903 134.849C226.576 134.849 227.13 134.677 227.564 134.332C227.999 133.987 228.321 133.533 228.53 132.97C228.738 132.408 228.843 131.798 228.843 131.142C228.843 130.486 228.738 129.874 228.53 129.308C228.321 128.741 227.999 128.283 227.564 127.933C227.13 127.584 226.576 127.409 225.903 127.409C225.229 127.409 224.675 127.584 224.241 127.933C223.806 128.283 223.484 128.741 223.275 129.308C223.067 129.874 222.962 130.486 222.962 131.142C222.962 131.798 223.067 132.408 223.275 132.97C223.484 133.533 223.806 133.987 224.241 134.332C224.675 134.677 225.229 134.849 225.903 134.849ZM93.2372 152.182V153.46H87.9446V152.182H93.2372ZM89.5298 162V150.827C89.5298 150.264 89.6619 149.795 89.9261 149.42C90.1903 149.045 90.5334 148.764 90.9553 148.577C91.3771 148.389 91.8224 148.295 92.2912 148.295C92.6619 148.295 92.9645 148.325 93.1989 148.385C93.4332 148.445 93.608 148.5 93.723 148.551L93.2884 149.855C93.2116 149.83 93.1051 149.798 92.9688 149.759C92.8366 149.721 92.6619 149.702 92.4446 149.702C91.946 149.702 91.5859 149.827 91.3643 150.079C91.147 150.33 91.0384 150.699 91.0384 151.185V162H89.5298ZM97.9593 162.23C97.3372 162.23 96.7725 162.113 96.2654 161.879C95.7583 161.64 95.3556 161.297 95.0574 160.849C94.7591 160.398 94.6099 159.852 94.6099 159.213C94.6099 158.651 94.7207 158.195 94.9423 157.845C95.1639 157.491 95.46 157.214 95.8308 157.014C96.2015 156.814 96.6106 156.665 97.0581 156.567C97.5098 156.464 97.9636 156.384 98.4196 156.324C99.0162 156.247 99.4998 156.19 99.8706 156.151C100.246 156.109 100.518 156.038 100.689 155.94C100.863 155.842 100.951 155.672 100.951 155.429V155.378C100.951 154.747 100.778 154.257 100.433 153.908C100.092 153.558 99.5744 153.384 98.8798 153.384C98.1596 153.384 97.595 153.541 97.1859 153.857C96.7768 154.172 96.4892 154.509 96.323 154.866L94.8912 154.355C95.1468 153.759 95.4877 153.294 95.9139 152.962C96.3443 152.625 96.813 152.391 97.3201 152.259C97.8315 152.122 98.3343 152.054 98.8287 152.054C99.144 152.054 99.5062 152.092 99.9153 152.169C100.329 152.241 100.727 152.393 101.111 152.623C101.498 152.853 101.82 153.2 102.076 153.665C102.331 154.129 102.459 154.751 102.459 155.531V162H100.951V160.67H100.874C100.772 160.884 100.601 161.112 100.363 161.354C100.124 161.597 99.8066 161.804 99.4103 161.974C99.014 162.145 98.5304 162.23 97.9593 162.23ZM98.1895 160.875C98.786 160.875 99.2889 160.758 99.698 160.523C100.111 160.289 100.422 159.987 100.631 159.616C100.844 159.245 100.951 158.855 100.951 158.446V157.065C100.887 157.142 100.746 157.212 100.529 157.276C100.316 157.336 100.069 157.389 99.7875 157.436C99.5105 157.479 99.2399 157.517 98.9757 157.551C98.7157 157.581 98.5048 157.607 98.3429 157.628C97.9508 157.679 97.5843 157.762 97.2434 157.877C96.9068 157.988 96.6341 158.156 96.4252 158.382C96.2207 158.604 96.1184 158.906 96.1184 159.29C96.1184 159.814 96.3123 160.21 96.7001 160.479C97.0922 160.743 97.5886 160.875 98.1895 160.875ZM112.89 152.182L109.259 162H107.725L104.094 152.182H105.73L108.441 160.006H108.543L111.253 152.182H112.89ZM118.518 162.205C117.631 162.205 116.854 161.994 116.185 161.572C115.52 161.15 115 160.56 114.625 159.801C114.254 159.043 114.069 158.156 114.069 157.142C114.069 156.119 114.254 155.227 114.625 154.464C115 153.701 115.52 153.109 116.185 152.687C116.854 152.265 117.631 152.054 118.518 152.054C119.404 152.054 120.18 152.265 120.844 152.687C121.513 153.109 122.033 153.701 122.404 154.464C122.779 155.227 122.967 156.119 122.967 157.142C122.967 158.156 122.779 159.043 122.404 159.801C122.033 160.56 121.513 161.15 120.844 161.572C120.18 161.994 119.404 162.205 118.518 162.205ZM118.518 160.849C119.191 160.849 119.745 160.677 120.18 160.332C120.614 159.987 120.936 159.533 121.145 158.97C121.354 158.408 121.458 157.798 121.458 157.142C121.458 156.486 121.354 155.874 121.145 155.308C120.936 154.741 120.614 154.283 120.18 153.933C119.745 153.584 119.191 153.409 118.518 153.409C117.844 153.409 117.29 153.584 116.856 153.933C116.421 154.283 116.099 154.741 115.891 155.308C115.682 155.874 115.577 156.486 115.577 157.142C115.577 157.798 115.682 158.408 115.891 158.97C116.099 159.533 116.421 159.987 116.856 160.332C117.29 160.677 117.844 160.849 118.518 160.849ZM125.269 162V152.182H126.727V153.665H126.829C127.008 153.179 127.332 152.785 127.801 152.482C128.269 152.18 128.798 152.028 129.386 152.028C129.497 152.028 129.635 152.031 129.801 152.035C129.968 152.039 130.093 152.045 130.178 152.054V153.588C130.127 153.575 130.01 153.556 129.827 153.531C129.648 153.501 129.458 153.486 129.258 153.486C128.781 153.486 128.355 153.586 127.98 153.786C127.609 153.982 127.315 154.255 127.097 154.604C126.884 154.95 126.778 155.344 126.778 155.787V162H125.269ZM131.967 162V152.182H133.475V162H131.967ZM132.734 150.545C132.44 150.545 132.186 150.445 131.973 150.245C131.764 150.045 131.66 149.804 131.66 149.523C131.66 149.241 131.764 149.001 131.973 148.8C132.186 148.6 132.44 148.5 132.734 148.5C133.028 148.5 133.279 148.6 133.488 148.8C133.701 149.001 133.808 149.241 133.808 149.523C133.808 149.804 133.701 150.045 133.488 150.245C133.279 150.445 133.028 150.545 132.734 150.545ZM140.508 152.182V153.46H135.42V152.182H140.508ZM136.903 149.83H138.411V159.188C138.411 159.614 138.473 159.933 138.597 160.146C138.725 160.355 138.887 160.496 139.083 160.568C139.283 160.636 139.494 160.67 139.715 160.67C139.882 160.67 140.018 160.662 140.124 160.645C140.231 160.624 140.316 160.607 140.38 160.594L140.687 161.949C140.585 161.987 140.442 162.026 140.259 162.064C140.075 162.107 139.843 162.128 139.562 162.128C139.136 162.128 138.718 162.036 138.309 161.853C137.904 161.67 137.568 161.391 137.299 161.016C137.035 160.641 136.903 160.168 136.903 159.597V149.83ZM146.66 162.205C145.774 162.205 144.996 161.994 144.327 161.572C143.662 161.15 143.143 160.56 142.768 159.801C142.397 159.043 142.211 158.156 142.211 157.142C142.211 156.119 142.397 155.227 142.768 154.464C143.143 153.701 143.662 153.109 144.327 152.687C144.996 152.265 145.774 152.054 146.66 152.054C147.547 152.054 148.322 152.265 148.987 152.687C149.656 153.109 150.176 153.701 150.547 154.464C150.922 155.227 151.109 156.119 151.109 157.142C151.109 158.156 150.922 159.043 150.547 159.801C150.176 160.56 149.656 161.15 148.987 161.572C148.322 161.994 147.547 162.205 146.66 162.205ZM146.66 160.849C147.334 160.849 147.888 160.677 148.322 160.332C148.757 159.987 149.079 159.533 149.287 158.97C149.496 158.408 149.601 157.798 149.601 157.142C149.601 156.486 149.496 155.874 149.287 155.308C149.079 154.741 148.757 154.283 148.322 153.933C147.888 153.584 147.334 153.409 146.66 153.409C145.987 153.409 145.433 153.584 144.998 153.933C144.564 154.283 144.242 154.741 144.033 155.308C143.824 155.874 143.72 156.486 143.72 157.142C143.72 157.798 143.824 158.408 144.033 158.97C144.242 159.533 144.564 159.987 144.998 160.332C145.433 160.677 145.987 160.849 146.66 160.849ZM162.182 162.205C161.364 162.205 160.641 161.998 160.015 161.585C159.388 161.167 158.898 160.579 158.545 159.82C158.191 159.058 158.014 158.156 158.014 157.116C158.014 156.085 158.191 155.19 158.545 154.432C158.898 153.673 159.391 153.087 160.021 152.674C160.652 152.261 161.381 152.054 162.207 152.054C162.847 152.054 163.352 152.161 163.722 152.374C164.097 152.582 164.383 152.821 164.579 153.089C164.779 153.354 164.935 153.571 165.045 153.741H165.173V148.909H166.682V162H165.224V160.491H165.045C164.935 160.67 164.777 160.896 164.572 161.169C164.368 161.437 164.076 161.678 163.697 161.891C163.317 162.1 162.813 162.205 162.182 162.205ZM162.386 160.849C162.991 160.849 163.503 160.692 163.92 160.376C164.338 160.057 164.656 159.616 164.873 159.053C165.09 158.487 165.199 157.832 165.199 157.091C165.199 156.358 165.092 155.717 164.879 155.167C164.666 154.613 164.351 154.183 163.933 153.876C163.516 153.565 163 153.409 162.386 153.409C161.747 153.409 161.214 153.573 160.788 153.901C160.366 154.225 160.049 154.666 159.836 155.224C159.627 155.778 159.523 156.401 159.523 157.091C159.523 157.79 159.629 158.425 159.842 158.996C160.06 159.562 160.379 160.014 160.801 160.351C161.227 160.683 161.756 160.849 162.386 160.849ZM173.771 162.205C172.825 162.205 172.009 161.996 171.322 161.578C170.641 161.156 170.114 160.568 169.744 159.814C169.377 159.055 169.194 158.173 169.194 157.168C169.194 156.162 169.377 155.276 169.744 154.509C170.114 153.737 170.63 153.136 171.29 152.706C171.955 152.271 172.731 152.054 173.617 152.054C174.129 152.054 174.634 152.139 175.132 152.31C175.631 152.48 176.085 152.757 176.494 153.141C176.903 153.52 177.229 154.023 177.472 154.649C177.714 155.276 177.836 156.047 177.836 156.963V157.602H170.268V156.298H176.302C176.302 155.744 176.191 155.25 175.969 154.815C175.752 154.381 175.441 154.038 175.036 153.786C174.636 153.535 174.163 153.409 173.617 153.409C173.016 153.409 172.496 153.558 172.058 153.857C171.623 154.151 171.288 154.534 171.054 155.007C170.82 155.48 170.702 155.987 170.702 156.528V157.398C170.702 158.139 170.83 158.768 171.086 159.283C171.346 159.795 171.706 160.185 172.166 160.453C172.626 160.717 173.161 160.849 173.771 160.849C174.167 160.849 174.525 160.794 174.844 160.683C175.168 160.568 175.447 160.398 175.682 160.172C175.916 159.942 176.097 159.656 176.225 159.315L177.683 159.724C177.529 160.219 177.271 160.653 176.909 161.028C176.547 161.399 176.099 161.689 175.567 161.898C175.034 162.102 174.435 162.205 173.771 162.205ZM188.082 162.23C187.46 162.23 186.896 162.113 186.388 161.879C185.881 161.64 185.479 161.297 185.18 160.849C184.882 160.398 184.733 159.852 184.733 159.213C184.733 158.651 184.844 158.195 185.065 157.845C185.287 157.491 185.583 157.214 185.954 157.014C186.325 156.814 186.734 156.665 187.181 156.567C187.633 156.464 188.087 156.384 188.543 156.324C189.139 156.247 189.623 156.19 189.994 156.151C190.369 156.109 190.641 156.038 190.812 155.94C190.987 155.842 191.074 155.672 191.074 155.429V155.378C191.074 154.747 190.901 154.257 190.556 153.908C190.215 153.558 189.697 153.384 189.003 153.384C188.283 153.384 187.718 153.541 187.309 153.857C186.9 154.172 186.612 154.509 186.446 154.866L185.014 154.355C185.27 153.759 185.611 153.294 186.037 152.962C186.467 152.625 186.936 152.391 187.443 152.259C187.955 152.122 188.457 152.054 188.952 152.054C189.267 152.054 189.629 152.092 190.038 152.169C190.452 152.241 190.85 152.393 191.234 152.623C191.621 152.853 191.943 153.2 192.199 153.665C192.455 154.129 192.582 154.751 192.582 155.531V162H191.074V160.67H190.997C190.895 160.884 190.724 161.112 190.486 161.354C190.247 161.597 189.93 161.804 189.533 161.974C189.137 162.145 188.653 162.23 188.082 162.23ZM188.312 160.875C188.909 160.875 189.412 160.758 189.821 160.523C190.234 160.289 190.545 159.987 190.754 159.616C190.967 159.245 191.074 158.855 191.074 158.446V157.065C191.01 157.142 190.869 157.212 190.652 157.276C190.439 157.336 190.192 157.389 189.911 157.436C189.634 157.479 189.363 157.517 189.099 157.551C188.839 157.581 188.628 157.607 188.466 157.628C188.074 157.679 187.707 157.762 187.366 157.877C187.03 157.988 186.757 158.156 186.548 158.382C186.344 158.604 186.241 158.906 186.241 159.29C186.241 159.814 186.435 160.21 186.823 160.479C187.215 160.743 187.712 160.875 188.312 160.875ZM199.708 152.182V153.46H194.415V152.182H199.708ZM196.001 162V150.827C196.001 150.264 196.133 149.795 196.397 149.42C196.661 149.045 197.004 148.764 197.426 148.577C197.848 148.389 198.293 148.295 198.762 148.295C199.133 148.295 199.435 148.325 199.67 148.385C199.904 148.445 200.079 148.5 200.194 148.551L199.759 149.855C199.682 149.83 199.576 149.798 199.439 149.759C199.307 149.721 199.133 149.702 198.915 149.702C198.417 149.702 198.057 149.827 197.835 150.079C197.618 150.33 197.509 150.699 197.509 151.185V162H196.001ZM204.43 162.23C203.808 162.23 203.243 162.113 202.736 161.879C202.229 161.64 201.826 161.297 201.528 160.849C201.23 160.398 201.081 159.852 201.081 159.213C201.081 158.651 201.191 158.195 201.413 157.845C201.635 157.491 201.931 157.214 202.301 157.014C202.672 156.814 203.081 156.665 203.529 156.567C203.98 156.464 204.434 156.384 204.89 156.324C205.487 156.247 205.971 156.19 206.341 156.151C206.716 156.109 206.989 156.038 207.159 155.94C207.334 155.842 207.422 155.672 207.422 155.429V155.378C207.422 154.747 207.249 154.257 206.904 153.908C206.563 153.558 206.045 153.384 205.35 153.384C204.63 153.384 204.066 153.541 203.657 153.857C203.248 154.172 202.96 154.509 202.794 154.866L201.362 154.355C201.618 153.759 201.958 153.294 202.385 152.962C202.815 152.625 203.284 152.391 203.791 152.259C204.302 152.122 204.805 152.054 205.299 152.054C205.615 152.054 205.977 152.092 206.386 152.169C206.799 152.241 207.198 152.393 207.581 152.623C207.969 152.853 208.291 153.2 208.547 153.665C208.802 154.129 208.93 154.751 208.93 155.531V162H207.422V160.67H207.345C207.243 160.884 207.072 161.112 206.833 161.354C206.595 161.597 206.277 161.804 205.881 161.974C205.485 162.145 205.001 162.23 204.43 162.23ZM204.66 160.875C205.257 160.875 205.76 160.758 206.169 160.523C206.582 160.289 206.893 159.987 207.102 159.616C207.315 159.245 207.422 158.855 207.422 158.446V157.065C207.358 157.142 207.217 157.212 207 157.276C206.787 157.336 206.539 157.389 206.258 157.436C205.981 157.479 205.711 157.517 205.446 157.551C205.186 157.581 204.975 157.607 204.814 157.628C204.422 157.679 204.055 157.762 203.714 157.877C203.377 157.988 203.105 158.156 202.896 158.382C202.691 158.604 202.589 158.906 202.589 159.29C202.589 159.814 202.783 160.21 203.171 160.479C203.563 160.743 204.059 160.875 204.66 160.875ZM211.683 162V152.182H213.141V153.665H213.243C213.422 153.179 213.746 152.785 214.215 152.482C214.683 152.18 215.212 152.028 215.8 152.028C215.911 152.028 216.049 152.031 216.215 152.035C216.382 152.039 216.507 152.045 216.593 152.054V153.588C216.541 153.575 216.424 153.556 216.241 153.531C216.062 153.501 215.872 153.486 215.672 153.486C215.195 153.486 214.769 153.586 214.394 153.786C214.023 153.982 213.729 154.255 213.512 154.604C213.298 154.95 213.192 155.344 213.192 155.787V162H211.683ZM222.198 162.205C221.252 162.205 220.436 161.996 219.75 161.578C219.068 161.156 218.542 160.568 218.171 159.814C217.805 159.055 217.622 158.173 217.622 157.168C217.622 156.162 217.805 155.276 218.171 154.509C218.542 153.737 219.058 153.136 219.718 152.706C220.383 152.271 221.159 152.054 222.045 152.054C222.556 152.054 223.061 152.139 223.56 152.31C224.058 152.48 224.512 152.757 224.921 153.141C225.33 153.52 225.656 154.023 225.899 154.649C226.142 155.276 226.264 156.047 226.264 156.963V157.602H218.695V156.298H224.73C224.73 155.744 224.619 155.25 224.397 154.815C224.18 154.381 223.869 154.038 223.464 153.786C223.063 153.535 222.59 153.409 222.045 153.409C221.444 153.409 220.924 153.558 220.485 153.857C220.051 154.151 219.716 154.534 219.482 155.007C219.247 155.48 219.13 155.987 219.13 156.528V157.398C219.13 158.139 219.258 158.768 219.514 159.283C219.774 159.795 220.134 160.185 220.594 160.453C221.054 160.717 221.589 160.849 222.198 160.849C222.595 160.849 222.953 160.794 223.272 160.683C223.596 160.568 223.875 160.398 224.11 160.172C224.344 159.942 224.525 159.656 224.653 159.315L226.11 159.724C225.957 160.219 225.699 160.653 225.337 161.028C224.975 161.399 224.527 161.689 223.994 161.898C223.462 162.102 222.863 162.205 222.198 162.205ZM228.277 162V160.849L233.851 153.69V153.588H228.456V152.182H235.794V153.384L230.374 160.491V160.594H235.973V162H228.277ZM242.132 162.205C241.186 162.205 240.37 161.996 239.684 161.578C239.002 161.156 238.476 160.568 238.105 159.814C237.738 159.055 237.555 158.173 237.555 157.168C237.555 156.162 237.738 155.276 238.105 154.509C238.476 153.737 238.991 153.136 239.652 152.706C240.317 152.271 241.092 152.054 241.979 152.054C242.49 152.054 242.995 152.139 243.493 152.31C243.992 152.48 244.446 152.757 244.855 153.141C245.264 153.52 245.59 154.023 245.833 154.649C246.076 155.276 246.197 156.047 246.197 156.963V157.602H238.629V156.298H244.663C244.663 155.744 244.552 155.25 244.331 154.815C244.113 154.381 243.802 154.038 243.398 153.786C242.997 153.535 242.524 153.409 241.979 153.409C241.378 153.409 240.858 153.558 240.419 153.857C239.984 154.151 239.65 154.534 239.415 155.007C239.181 155.48 239.064 155.987 239.064 156.528V157.398C239.064 158.139 239.192 158.768 239.447 159.283C239.707 159.795 240.067 160.185 240.528 160.453C240.988 160.717 241.523 160.849 242.132 160.849C242.528 160.849 242.886 160.794 243.206 160.683C243.53 160.568 243.809 160.398 244.043 160.172C244.278 159.942 244.459 159.656 244.586 159.315L246.044 159.724C245.89 160.219 245.633 160.653 245.27 161.028C244.908 161.399 244.461 161.689 243.928 161.898C243.395 162.102 242.797 162.205 242.132 162.205ZM255.447 154.381L254.091 154.764C254.006 154.538 253.881 154.319 253.714 154.106C253.552 153.888 253.331 153.71 253.05 153.569C252.768 153.428 252.408 153.358 251.969 153.358C251.368 153.358 250.868 153.496 250.467 153.773C250.071 154.046 249.873 154.393 249.873 154.815C249.873 155.19 250.009 155.487 250.282 155.704C250.555 155.921 250.981 156.102 251.56 156.247L253.018 156.605C253.895 156.818 254.55 157.144 254.98 157.583C255.41 158.018 255.626 158.578 255.626 159.264C255.626 159.827 255.464 160.33 255.14 160.773C254.82 161.216 254.373 161.565 253.797 161.821C253.222 162.077 252.553 162.205 251.79 162.205C250.789 162.205 249.96 161.987 249.304 161.553C248.648 161.118 248.232 160.483 248.057 159.648L249.489 159.29C249.626 159.818 249.883 160.214 250.263 160.479C250.646 160.743 251.147 160.875 251.765 160.875C252.468 160.875 253.026 160.726 253.439 160.428C253.857 160.125 254.066 159.763 254.066 159.341C254.066 159 253.947 158.714 253.708 158.484C253.469 158.25 253.103 158.075 252.608 157.96L250.972 157.577C250.073 157.364 249.412 157.033 248.991 156.586C248.573 156.134 248.364 155.57 248.364 154.892C248.364 154.338 248.52 153.848 248.831 153.422C249.146 152.996 249.574 152.661 250.116 152.418C250.661 152.175 251.279 152.054 251.969 152.054C252.941 152.054 253.704 152.267 254.258 152.693C254.816 153.119 255.212 153.682 255.447 154.381Z" fill="white"/>
<path d="M114.826 43.7612V51.8209H108.185V63.8209C108.185 65.2537 108.423 66.3085 108.897 66.9851C109.371 67.6219 110.241 67.9403 111.505 67.9403H114.826V74.9254C113.877 75.2438 112.652 75.5025 111.15 75.7015C109.648 75.9005 108.344 76 107.237 76C103.759 76 101.071 75.3632 99.1738 74.0896C97.3161 72.8159 96.3873 70.6468 96.3873 67.5821V51.8209H92V43.7612H96.8616L99.4109 34.209H108.185V43.7612H114.826Z" fill="white"/>
<path d="M136.485 43.0448C141.979 43.0448 146.287 44.4577 149.41 47.2836C152.572 50.0697 154.153 54.1493 154.153 59.5224C154.153 64.8955 152.572 68.995 149.41 71.8209C146.287 74.607 141.979 76 136.485 76C130.991 76 126.683 74.607 123.561 71.8209C120.438 69.0348 118.877 64.9353 118.877 59.5224C118.877 54.1095 120.438 50.01 123.561 47.2239C126.683 44.4378 130.991 43.0448 136.485 43.0448ZM136.485 51.1045C132.612 51.1045 130.675 53.3532 130.675 57.8507V61.2537C130.675 65.7114 132.612 67.9403 136.485 67.9403C140.398 67.9403 142.355 65.7114 142.355 61.2537V57.8507C142.355 53.3532 140.398 51.1045 136.485 51.1045Z" fill="white"/>
<path d="M158.919 75.2836V63.403H171.488V75.2836H158.919Z" fill="white"/>
<path d="M201.369 75.2836L200.361 70.806C198.069 74.2687 194.749 76 190.401 76C186.172 76 182.911 74.607 180.619 71.8209C178.326 69.0348 177.18 64.9154 177.18 59.4627C177.18 54.0497 178.326 49.9701 180.619 47.2239C182.911 44.4378 186.172 43.0448 190.401 43.0448C193.998 43.0448 196.923 44.2587 199.176 46.6866V32H210.974V75.2836H201.369ZM194.077 51.8209C190.678 51.8209 188.978 53.8706 188.978 57.9701V61.1343C188.978 65.194 190.678 67.2239 194.077 67.2239C195.816 67.2239 197.12 66.607 197.99 65.3731C198.859 64.1393 199.294 62.5274 199.294 60.5373V58.5672C199.294 56.5771 198.859 54.9652 197.99 53.7313C197.12 52.4577 195.816 51.8209 194.077 51.8209Z" fill="white"/>
<path d="M234.332 43.0448C239.826 43.0448 244.135 44.4577 247.257 47.2836C250.419 50.0697 252 54.1493 252 59.5224C252 64.8955 250.419 68.995 247.257 71.8209C244.135 74.607 239.826 76 234.332 76C228.838 76 224.53 74.607 221.408 71.8209C218.285 69.0348 216.724 64.9353 216.724 59.5224C216.724 54.1095 218.285 50.01 221.408 47.2239C224.53 44.4378 228.838 43.0448 234.332 43.0448ZM234.332 51.1045C230.459 51.1045 228.522 53.3532 228.522 57.8507V61.2537C228.522 65.7114 230.459 67.9403 234.332 67.9403C238.245 67.9403 240.202 65.7114 240.202 61.2537V57.8507C240.202 53.3532 238.245 51.1045 234.332 51.1045Z" fill="white"/>
</svg>
